<?xml version="1.0" standalone="no"?>
<!DOCTYPE svg PUBLIC "-//W3C//DTD SVG 20010904//EN"
 "http://www.w3.org/TR/2001/REC-SVG-20010904/DTD/svg10.dtd">
<svg version="1.0" xmlns="http://www.w3.org/2000/svg"
 width="612.000000pt" height="612.000000pt" viewBox="0 0 612.000000 612.000000"
 preserveAspectRatio="xMidYMid meet">

<g transform="translate(0.000000,612.000000) scale(0.100000,-0.100000)"
fill="#000" stroke="none">
<path d="M2520 4499 c-289 -4 -538 -10 -555 -14 -35 -9 -81 -39 -113 -75 -83
-92 -222 -338 -378 -672 l-78 -168 -183 0 c-203 0 -224 -5 -264 -62 -16 -22
-23 -46 -23 -80 0 -83 51 -129 161 -147 118 -19 129 -41 54 -114 -127 -123
-193 -358 -193 -687 0 -309 64 -570 151 -614 153 -79 753 -130 1696 -142 1005
-14 1964 42 2192 128 61 23 90 58 122 150 48 139 77 392 66 573 -18 294 -86
498 -200 601 -25 22 -45 48 -45 58 0 21 56 46 103 46 42 0 115 37 140 71 44
62 25 151 -42 196 -32 22 -43 23 -216 23 -134 0 -185 3 -192 13 -5 6 -35 68
-67 137 -210 449 -345 676 -437 737 -36 23 -51 26 -206 34 -233 12 -869 15
-1493 8z m1095 -159 c305 -6 442 -13 470 -22 33 -11 49 -26 87 -83 94 -139
361 -686 361 -739 0 -52 -24 -61 -220 -79 -428 -41 -667 -51 -1243 -51 -555
-1 -718 5 -1140 40 -321 26 -340 31 -340 93 0 52 259 584 352 723 48 71 65 89
95 99 25 8 160 14 403 19 553 10 708 10 1175 0z m-1912 -1493 c89 -37 157
-143 157 -243 0 -96 -69 -203 -159 -249 -85 -43 -213 -25 -289 41 -149 127
-120 361 56 453 63 33 154 33 235 -2z m2954 -3 c170 -81 199 -316 54 -447 -43
-39 -120 -67 -182 -67 -59 0 -140 35 -187 81 -154 153 -73 417 141 458 58 12
113 3 174 -25z m-772 -96 c26 -11 41 -47 36 -81 -1 -10 -36 -74 -77 -143 -51
-84 -85 -129 -104 -139 -42 -22 -1316 -23 -1358 -1 -36 19 -182 260 -182 300
0 17 10 40 22 53 l21 23 808 0 c596 0 815 -3 834 -12z"/>
<path d="M1070 1593 c0 -171 1 -182 23 -214 37 -55 69 -61 338 -57 220 3 239
4 259 23 40 35 50 76 50 205 0 108 -2 120 -17 120 -41 0 -345 32 -433 45 -86
13 -153 29 -202 50 -17 7 -18 -5 -18 -172z"/>
<path d="M4985 1748 c-80 -25 -203 -44 -415 -64 -96 -8 -179 -18 -183 -21 -5
-3 -7 -61 -5 -129 4 -138 14 -163 79 -197 30 -16 60 -17 266 -15 216 3 233 4
259 24 64 47 67 59 72 239 3 92 1 170 -4 174 -5 4 -36 -1 -69 -11z"/>
</g>
</svg>
