<svg width="791" height="791" viewBox="0 0 791 791" fill="none" xmlns="http://www.w3.org/2000/svg">
<path d="M395.383 1C178.154 1 1 178.154 1 395.383C1 612.613 178.154 789.767 395.383 789.767C612.613 789.767 789.767 612.613 789.767 395.383C789.615 178.154 612.461 1 395.383 1ZM395.383 744.226C203.201 744.226 46.5408 587.565 46.5408 395.383C46.5408 203.201 203.201 46.5408 395.383 46.5408C587.565 46.5408 744.226 203.201 744.226 395.383C744.226 587.565 587.414 744.226 395.383 744.226Z" fill="white" stroke="white" stroke-width="1.51803"/>
<path d="M282.442 661.949C178.761 617.774 105.896 514.852 105.896 395.383C105.896 365.023 110.602 335.725 119.406 308.097L282.442 661.949Z" fill="white" stroke="white" stroke-width="1.51803"/>
<path d="M475.687 673.486C450.184 680.924 423.163 684.871 395.232 684.871C367.3 684.871 340.431 680.924 314.928 673.486L395.232 486.01L475.687 673.486Z" fill="white" stroke="white" stroke-width="1.51803"/>
<path d="M671.361 308.249C680.165 335.725 684.871 365.023 684.871 395.383C684.871 514.852 611.854 617.774 508.324 661.797L671.361 308.249Z" fill="white" stroke="white" stroke-width="1.51803"/>
<path d="M541.266 145.516C576.636 166.313 607.148 194.245 630.981 227.49L486.769 533.979L438.192 416.939H352.575L303.998 533.979L159.786 227.49C183.619 194.245 214.131 166.161 249.501 145.516L350.602 381.569H440.165L541.266 145.516Z" fill="white" stroke="white" stroke-width="1.51803"/>
<path d="M395.383 105.896C423.619 105.896 451.095 109.994 476.901 117.584L395.383 313.865L313.865 117.584C339.672 109.994 366.996 105.896 395.383 105.896Z" fill="white" stroke="white" stroke-width="1.51803"/>
</svg>
