<svg xmlns="http://www.w3.org/2000/svg" viewBox="0 0 240 240" class="w-10 h-10">
  <defs>
    <radialGradient id="bubbleGradient" cx="50%" cy="50%" r="50%">
      <stop offset="0%" stop-color="#25D366" />
      <stop offset="100%" stop-color="#128C7E" />
    </radialGradient>
    <filter id="shadow" x="-20%" y="-20%" width="140%" height="140%">
      <feDropShadow dx="0" dy="4" stdDeviation="4" flood-color="rgba(0,0,0,0.3)" />
    </filter>
  </defs>
  <circle cx="120" cy="120" r="100" fill="url(#bubbleGradient)" filter="url(#shadow)" />
  <path
    d="M162.5 142.1c-2.7-1.3-15.9-7.8-18.4-8.7s-4.2-1.3-5.9 1.3-6.7 8.7-8.3 10.5-3.1 2-5.8.7-11.4-4.2-21.7-13.4c-8-7.1-13.4-15.8-15-18.4s-.2-4.1 1.1-5.4c1.2-1.2 2.6-3.1 3.9-4.7 1.3-1.5 1.7-2.7 2.5-4.4s.4-3.3-.2-4.6-5.9-14.2-8.1-19.4c-2.1-5-4.2-4.3-5.8-4.3-1.5 0-3.3-.2-5.1-.2s-4.7.7-7.1 3.3-9.3 9.1-9.3 22.2 9.5 25.8 10.8 27.6c1.3 1.7 18.7 28.5 45.3 39.9 6.3 2.7 11.2 4.3 15 5.5 6.3 2 12.1 1.7 16.7 1 5.1-.7 15.9-6.5 18.1-12.8 2.2-6.2 2.2-11.5 1.5-12.7-.6-1.1-2.5-1.9-5.2-3.2z"
    fill="#fff"
  />
</svg>
